<?xml version="1.0" encoding="UTF-8"?>
<!-- Created with Inkscape (http://www.inkscape.org/) -->
<svg width="107.77mm" height="107.77mm" version="1.1" viewBox="0 0 107.77 107.77" xmlns="http://www.w3.org/2000/svg">
 <g transform="translate(65.399 -144.56)">
  <path transform="matrix(.26458 0 0 .26458 -65.399 144.56)" d="m87.373 0c-48.405 0-87.373 38.968-87.373 87.373v232.58c9.4739e-15 24.202 9.7425 46.045 25.535 61.838l356.26-356.26c-15.793-15.793-37.636-25.535-61.838-25.535h-232.58z" fill="#6200ef" fill-opacity=".98824" style="paint-order:fill markers stroke"/>
  <path transform="matrix(.26458 0 0 .26458 -65.399 144.56)" d="m381.79 25.535-356.26 356.26c15.793 15.793 37.636 25.535 61.838 25.535h232.58c48.405 0 87.373-38.968 87.373-87.373v-232.58c0-24.202-9.7425-46.045-25.535-61.838z" fill-opacity=".98824" style="paint-order:fill markers stroke"/>
  <path d="m-3.4688 205.16v5.4688h3.3242v21.764h5.5625v-21.764h8.4121v14.938c0 2.7801 0.32281 4.7402 1.1777 5.9668v2e-3l2e-3 2e-3c0.85399 1.2067 2.3781 1.7637 4.3457 1.7637 0.60571 0 1.21-0.0504 1.8145-0.14844 0.61131-0.0991 1.2084-0.25576 1.7871-0.4707l0.38867-0.14453v-4.1914l-0.67969 0.0957c-0.10056 0.0143-0.32676 0.0465-0.64453 0.0898-0.32889 0.0299-0.60056 0.0449-0.80664 0.0449-0.73645 0-1.1347-0.18487-1.3887-0.49609-0.24122-0.32733-0.43359-1.0059-0.43359-2.0488v-15.402h3.2773v-5.4688z" color="#000000" fill="#fff" style="-inkscape-stroke:none"/>
  <path d="m-28.104 164.18v12.184h12.138v5.4875h-12.138v12.184h-5.534v-12.184h-12.138v-5.4875h12.138v-12.184z" fill="#fff" stroke-width="1.1905"/>
 </g>
</svg>
